<svg width="412" height="27" viewBox="0 0 412 27" fill="none" xmlns="http://www.w3.org/2000/svg">
<path d="M142.39 13.615C142.77 13.675 143.115 13.83 143.425 14.08C143.745 14.33 143.995 14.64 144.175 15.01C144.365 15.38 144.46 15.775 144.46 16.195C144.46 16.725 144.325 17.205 144.055 17.635C143.785 18.055 143.39 18.39 142.87 18.64C142.36 18.88 141.755 19 141.055 19H137.155V8.545H140.905C141.615 8.545 142.22 8.665 142.72 8.905C143.22 9.135 143.595 9.45 143.845 9.85C144.095 10.25 144.22 10.7 144.22 11.2C144.22 11.82 144.05 12.335 143.71 12.745C143.38 13.145 142.94 13.435 142.39 13.615ZM138.52 13.06H140.815C141.455 13.06 141.95 12.91 142.3 12.61C142.65 12.31 142.825 11.895 142.825 11.365C142.825 10.835 142.65 10.42 142.3 10.12C141.95 9.82 141.445 9.67 140.785 9.67H138.52V13.06ZM140.935 17.875C141.615 17.875 142.145 17.715 142.525 17.395C142.905 17.075 143.095 16.63 143.095 16.06C143.095 15.48 142.895 15.025 142.495 14.695C142.095 14.355 141.56 14.185 140.89 14.185H138.52V17.875H140.935ZM145.844 14.86C145.844 14.02 146.014 13.285 146.354 12.655C146.694 12.015 147.159 11.52 147.749 11.17C148.349 10.82 149.014 10.645 149.744 10.645C150.464 10.645 151.089 10.8 151.619 11.11C152.149 11.42 152.544 11.81 152.804 12.28V10.78H154.184V19H152.804V17.47C152.534 17.95 152.129 18.35 151.589 18.67C151.059 18.98 150.439 19.135 149.729 19.135C148.999 19.135 148.339 18.955 147.749 18.595C147.159 18.235 146.694 17.73 146.354 17.08C146.014 16.43 145.844 15.69 145.844 14.86ZM152.804 14.875C152.804 14.255 152.679 13.715 152.429 13.255C152.179 12.795 151.839 12.445 151.409 12.205C150.989 11.955 150.524 11.83 150.014 11.83C149.504 11.83 149.039 11.95 148.619 12.19C148.199 12.43 147.864 12.78 147.614 13.24C147.364 13.7 147.239 14.24 147.239 14.86C147.239 15.49 147.364 16.04 147.614 16.51C147.864 16.97 148.199 17.325 148.619 17.575C149.039 17.815 149.504 17.935 150.014 17.935C150.524 17.935 150.989 17.815 151.409 17.575C151.839 17.325 152.179 16.97 152.429 16.51C152.679 16.04 152.804 15.495 152.804 14.875ZM159.401 19.135C158.771 19.135 158.206 19.03 157.706 18.82C157.206 18.6 156.811 18.3 156.521 17.92C156.231 17.53 156.071 17.085 156.041 16.585H157.451C157.491 16.995 157.681 17.33 158.021 17.59C158.371 17.85 158.826 17.98 159.386 17.98C159.906 17.98 160.316 17.865 160.616 17.635C160.916 17.405 161.066 17.115 161.066 16.765C161.066 16.405 160.906 16.14 160.586 15.97C160.266 15.79 159.771 15.615 159.101 15.445C158.491 15.285 157.991 15.125 157.601 14.965C157.221 14.795 156.891 14.55 156.611 14.23C156.341 13.9 156.206 13.47 156.206 12.94C156.206 12.52 156.331 12.135 156.581 11.785C156.831 11.435 157.186 11.16 157.646 10.96C158.106 10.75 158.631 10.645 159.221 10.645C160.131 10.645 160.866 10.875 161.426 11.335C161.986 11.795 162.286 12.425 162.326 13.225H160.961C160.931 12.795 160.756 12.45 160.436 12.19C160.126 11.93 159.706 11.8 159.176 11.8C158.686 11.8 158.296 11.905 158.006 12.115C157.716 12.325 157.571 12.6 157.571 12.94C157.571 13.21 157.656 13.435 157.826 13.615C158.006 13.785 158.226 13.925 158.486 14.035C158.756 14.135 159.126 14.25 159.596 14.38C160.186 14.54 160.666 14.7 161.036 14.86C161.406 15.01 161.721 15.24 161.981 15.55C162.251 15.86 162.391 16.265 162.401 16.765C162.401 17.215 162.276 17.62 162.026 17.98C161.776 18.34 161.421 18.625 160.961 18.835C160.511 19.035 159.991 19.135 159.401 19.135ZM171.828 14.575C171.828 14.835 171.813 15.11 171.783 15.4H165.213C165.263 16.21 165.538 16.845 166.038 17.305C166.548 17.755 167.163 17.98 167.883 17.98C168.473 17.98 168.963 17.845 169.353 17.575C169.753 17.295 170.033 16.925 170.193 16.465H171.663C171.443 17.255 171.003 17.9 170.343 18.4C169.683 18.89 168.863 19.135 167.883 19.135C167.103 19.135 166.403 18.96 165.783 18.61C165.173 18.26 164.693 17.765 164.343 17.125C163.993 16.475 163.818 15.725 163.818 14.875C163.818 14.025 163.988 13.28 164.328 12.64C164.668 12 165.143 11.51 165.753 11.17C166.373 10.82 167.083 10.645 167.883 10.645C168.663 10.645 169.353 10.815 169.953 11.155C170.553 11.495 171.013 11.965 171.333 12.565C171.663 13.155 171.828 13.825 171.828 14.575ZM170.418 14.29C170.418 13.77 170.303 13.325 170.073 12.955C169.843 12.575 169.528 12.29 169.128 12.1C168.738 11.9 168.303 11.8 167.823 11.8C167.133 11.8 166.543 12.02 166.053 12.46C165.573 12.9 165.298 13.51 165.228 14.29H170.418ZM173.12 14.86C173.12 14.02 173.29 13.285 173.63 12.655C173.97 12.015 174.435 11.52 175.025 11.17C175.625 10.82 176.295 10.645 177.035 10.645C177.675 10.645 178.27 10.795 178.82 11.095C179.37 11.385 179.79 11.77 180.08 12.25V7.9H181.46V19H180.08V17.455C179.81 17.945 179.41 18.35 178.88 18.67C178.35 18.98 177.73 19.135 177.02 19.135C176.29 19.135 175.625 18.955 175.025 18.595C174.435 18.235 173.97 17.73 173.63 17.08C173.29 16.43 173.12 15.69 173.12 14.86ZM180.08 14.875C180.08 14.255 179.955 13.715 179.705 13.255C179.455 12.795 179.115 12.445 178.685 12.205C178.265 11.955 177.8 11.83 177.29 11.83C176.78 11.83 176.315 11.95 175.895 12.19C175.475 12.43 175.14 12.78 174.89 13.24C174.64 13.7 174.515 14.24 174.515 14.86C174.515 15.49 174.64 16.04 174.89 16.51C175.14 16.97 175.475 17.325 175.895 17.575C176.315 17.815 176.78 17.935 177.29 17.935C177.8 17.935 178.265 17.815 178.685 17.575C179.115 17.325 179.455 16.97 179.705 16.51C179.955 16.04 180.08 15.495 180.08 14.875ZM191.35 19.135C190.58 19.135 189.88 18.96 189.25 18.61C188.63 18.26 188.14 17.765 187.78 17.125C187.43 16.475 187.255 15.725 187.255 14.875C187.255 14.035 187.435 13.295 187.795 12.655C188.165 12.005 188.665 11.51 189.295 11.17C189.925 10.82 190.63 10.645 191.41 10.645C192.19 10.645 192.895 10.82 193.525 11.17C194.155 11.51 194.65 12 195.01 12.64C195.38 13.28 195.565 14.025 195.565 14.875C195.565 15.725 195.375 16.475 194.995 17.125C194.625 17.765 194.12 18.26 193.48 18.61C192.84 18.96 192.13 19.135 191.35 19.135ZM191.35 17.935C191.84 17.935 192.3 17.82 192.73 17.59C193.16 17.36 193.505 17.015 193.765 16.555C194.035 16.095 194.17 15.535 194.17 14.875C194.17 14.215 194.04 13.655 193.78 13.195C193.52 12.735 193.18 12.395 192.76 12.175C192.34 11.945 191.885 11.83 191.395 11.83C190.895 11.83 190.435 11.945 190.015 12.175C189.605 12.395 189.275 12.735 189.025 13.195C188.775 13.655 188.65 14.215 188.65 14.875C188.65 15.545 188.77 16.11 189.01 16.57C189.26 17.03 189.59 17.375 190 17.605C190.41 17.825 190.86 17.935 191.35 17.935ZM201.365 10.63C202.365 10.63 203.175 10.935 203.795 11.545C204.415 12.145 204.725 13.015 204.725 14.155V19H203.375V14.35C203.375 13.53 203.17 12.905 202.76 12.475C202.35 12.035 201.79 11.815 201.08 11.815C200.36 11.815 199.785 12.04 199.355 12.49C198.935 12.94 198.725 13.595 198.725 14.455V19H197.36V10.78H198.725V11.95C198.995 11.53 199.36 11.205 199.82 10.975C200.29 10.745 200.805 10.63 201.365 10.63ZM210.369 9.4V8.155H213.189V19H211.809V9.4H210.369ZM215.534 13.465C215.534 11.745 215.814 10.405 216.374 9.445C216.934 8.475 217.914 7.99 219.314 7.99C220.704 7.99 221.679 8.475 222.239 9.445C222.799 10.405 223.079 11.745 223.079 13.465C223.079 15.215 222.799 16.575 222.239 17.545C221.679 18.515 220.704 19 219.314 19C217.914 19 216.934 18.515 216.374 17.545C215.814 16.575 215.534 15.215 215.534 13.465ZM221.729 13.465C221.729 12.595 221.669 11.86 221.549 11.26C221.439 10.65 221.204 10.16 220.844 9.79C220.494 9.42 219.984 9.235 219.314 9.235C218.634 9.235 218.114 9.42 217.754 9.79C217.404 10.16 217.169 10.65 217.049 11.26C216.939 11.86 216.884 12.595 216.884 13.465C216.884 14.365 216.939 15.12 217.049 15.73C217.169 16.34 217.404 16.83 217.754 17.2C218.114 17.57 218.634 17.755 219.314 17.755C219.984 17.755 220.494 17.57 220.844 17.2C221.204 16.83 221.439 16.34 221.549 15.73C221.669 15.12 221.729 14.365 221.729 13.465ZM224.952 13.465C224.952 11.745 225.232 10.405 225.792 9.445C226.352 8.475 227.332 7.99 228.732 7.99C230.122 7.99 231.097 8.475 231.657 9.445C232.217 10.405 232.497 11.745 232.497 13.465C232.497 15.215 232.217 16.575 231.657 17.545C231.097 18.515 230.122 19 228.732 19C227.332 19 226.352 18.515 225.792 17.545C225.232 16.575 224.952 15.215 224.952 13.465ZM231.147 13.465C231.147 12.595 231.087 11.86 230.967 11.26C230.857 10.65 230.622 10.16 230.262 9.79C229.912 9.42 229.402 9.235 228.732 9.235C228.052 9.235 227.532 9.42 227.172 9.79C226.822 10.16 226.587 10.65 226.467 11.26C226.357 11.86 226.302 12.595 226.302 13.465C226.302 14.365 226.357 15.12 226.467 15.73C226.587 16.34 226.822 16.83 227.172 17.2C227.532 17.57 228.052 17.755 228.732 17.755C229.402 17.755 229.912 17.57 230.262 17.2C230.622 16.83 230.857 16.34 230.967 15.73C231.087 15.12 231.147 14.365 231.147 13.465ZM242.396 14.095H239.201V17.335H237.926V14.095H234.746V12.94H237.926V9.685H239.201V12.94H242.396V14.095ZM258.72 10.63C259.36 10.63 259.93 10.765 260.43 11.035C260.93 11.295 261.325 11.69 261.615 12.22C261.905 12.75 262.05 13.395 262.05 14.155V19H260.7V14.35C260.7 13.53 260.495 12.905 260.085 12.475C259.685 12.035 259.14 11.815 258.45 11.815C257.74 11.815 257.175 12.045 256.755 12.505C256.335 12.955 256.125 13.61 256.125 14.47V19H254.775V14.35C254.775 13.53 254.57 12.905 254.16 12.475C253.76 12.035 253.215 11.815 252.525 11.815C251.815 11.815 251.25 12.045 250.83 12.505C250.41 12.955 250.2 13.61 250.2 14.47V19H248.835V10.78H250.2V11.965C250.47 11.535 250.83 11.205 251.28 10.975C251.74 10.745 252.245 10.63 252.795 10.63C253.485 10.63 254.095 10.785 254.625 11.095C255.155 11.405 255.55 11.86 255.81 12.46C256.04 11.88 256.42 11.43 256.95 11.11C257.48 10.79 258.07 10.63 258.72 10.63ZM263.779 14.86C263.779 14.02 263.949 13.285 264.289 12.655C264.629 12.015 265.094 11.52 265.684 11.17C266.284 10.82 266.949 10.645 267.679 10.645C268.399 10.645 269.024 10.8 269.554 11.11C270.084 11.42 270.479 11.81 270.739 12.28V10.78H272.119V19H270.739V17.47C270.469 17.95 270.064 18.35 269.524 18.67C268.994 18.98 268.374 19.135 267.664 19.135C266.934 19.135 266.274 18.955 265.684 18.595C265.094 18.235 264.629 17.73 264.289 17.08C263.949 16.43 263.779 15.69 263.779 14.86ZM270.739 14.875C270.739 14.255 270.614 13.715 270.364 13.255C270.114 12.795 269.774 12.445 269.344 12.205C268.924 11.955 268.459 11.83 267.949 11.83C267.439 11.83 266.974 11.95 266.554 12.19C266.134 12.43 265.799 12.78 265.549 13.24C265.299 13.7 265.174 14.24 265.174 14.86C265.174 15.49 265.299 16.04 265.549 16.51C265.799 16.97 266.134 17.325 266.554 17.575C266.974 17.815 267.439 17.935 267.949 17.935C268.459 17.935 268.924 17.815 269.344 17.575C269.774 17.325 270.114 16.97 270.364 16.51C270.614 16.04 270.739 15.495 270.739 14.875ZM275.791 12.115C276.031 11.645 276.371 11.28 276.811 11.02C277.261 10.76 277.806 10.63 278.446 10.63V12.04H278.086C276.556 12.04 275.791 12.87 275.791 14.53V19H274.426V10.78H275.791V12.115ZM284.611 19L281.386 15.37V19H280.021V7.9H281.386V14.425L284.551 10.78H286.456L282.586 14.875L286.471 19H284.611ZM295.241 14.575C295.241 14.835 295.226 15.11 295.196 15.4H288.626C288.676 16.21 288.951 16.845 289.451 17.305C289.961 17.755 290.576 17.98 291.296 17.98C291.886 17.98 292.376 17.845 292.766 17.575C293.166 17.295 293.446 16.925 293.606 16.465H295.076C294.856 17.255 294.416 17.9 293.756 18.4C293.096 18.89 292.276 19.135 291.296 19.135C290.516 19.135 289.816 18.96 289.196 18.61C288.586 18.26 288.106 17.765 287.756 17.125C287.406 16.475 287.231 15.725 287.231 14.875C287.231 14.025 287.401 13.28 287.741 12.64C288.081 12 288.556 11.51 289.166 11.17C289.786 10.82 290.496 10.645 291.296 10.645C292.076 10.645 292.766 10.815 293.366 11.155C293.966 11.495 294.426 11.965 294.746 12.565C295.076 13.155 295.241 13.825 295.241 14.575ZM293.831 14.29C293.831 13.77 293.716 13.325 293.486 12.955C293.256 12.575 292.941 12.29 292.541 12.1C292.151 11.9 291.716 11.8 291.236 11.8C290.546 11.8 289.956 12.02 289.466 12.46C288.986 12.9 288.711 13.51 288.641 14.29H293.831ZM298.708 11.905V16.75C298.708 17.15 298.793 17.435 298.963 17.605C299.133 17.765 299.428 17.845 299.848 17.845H300.853V19H299.623C298.863 19 298.293 18.825 297.913 18.475C297.533 18.125 297.343 17.55 297.343 16.75V11.905H296.278V10.78H297.343V8.71H298.708V10.78H300.853V11.905H298.708ZM310.007 14.575C310.007 14.835 309.992 15.11 309.962 15.4H303.392C303.442 16.21 303.717 16.845 304.217 17.305C304.727 17.755 305.342 17.98 306.062 17.98C306.652 17.98 307.142 17.845 307.532 17.575C307.932 17.295 308.212 16.925 308.372 16.465H309.842C309.622 17.255 309.182 17.9 308.522 18.4C307.862 18.89 307.042 19.135 306.062 19.135C305.282 19.135 304.582 18.96 303.962 18.61C303.352 18.26 302.872 17.765 302.522 17.125C302.172 16.475 301.997 15.725 301.997 14.875C301.997 14.025 302.167 13.28 302.507 12.64C302.847 12 303.322 11.51 303.932 11.17C304.552 10.82 305.262 10.645 306.062 10.645C306.842 10.645 307.532 10.815 308.132 11.155C308.732 11.495 309.192 11.965 309.512 12.565C309.842 13.155 310.007 13.825 310.007 14.575ZM308.597 14.29C308.597 13.77 308.482 13.325 308.252 12.955C308.022 12.575 307.707 12.29 307.307 12.1C306.917 11.9 306.482 11.8 306.002 11.8C305.312 11.8 304.722 12.02 304.232 12.46C303.752 12.9 303.477 13.51 303.407 14.29H308.597ZM313.173 12.115C313.413 11.645 313.753 11.28 314.193 11.02C314.643 10.76 315.188 10.63 315.828 10.63V12.04H315.468C313.938 12.04 313.173 12.87 313.173 14.53V19H311.808V10.78H313.173V12.115ZM320.314 19.135C319.684 19.135 319.119 19.03 318.619 18.82C318.119 18.6 317.724 18.3 317.434 17.92C317.144 17.53 316.984 17.085 316.954 16.585H318.364C318.404 16.995 318.594 17.33 318.934 17.59C319.284 17.85 319.739 17.98 320.299 17.98C320.819 17.98 321.229 17.865 321.529 17.635C321.829 17.405 321.979 17.115 321.979 16.765C321.979 16.405 321.819 16.14 321.499 15.97C321.179 15.79 320.684 15.615 320.014 15.445C319.404 15.285 318.904 15.125 318.514 14.965C318.134 14.795 317.804 14.55 317.524 14.23C317.254 13.9 317.119 13.47 317.119 12.94C317.119 12.52 317.244 12.135 317.494 11.785C317.744 11.435 318.099 11.16 318.559 10.96C319.019 10.75 319.544 10.645 320.134 10.645C321.044 10.645 321.779 10.875 322.339 11.335C322.899 11.795 323.199 12.425 323.239 13.225H321.874C321.844 12.795 321.669 12.45 321.349 12.19C321.039 11.93 320.619 11.8 320.089 11.8C319.599 11.8 319.209 11.905 318.919 12.115C318.629 12.325 318.484 12.6 318.484 12.94C318.484 13.21 318.569 13.435 318.739 13.615C318.919 13.785 319.139 13.925 319.399 14.035C319.669 14.135 320.039 14.25 320.509 14.38C321.099 14.54 321.579 14.7 321.949 14.86C322.319 15.01 322.634 15.24 322.894 15.55C323.164 15.86 323.304 16.265 323.314 16.765C323.314 17.215 323.189 17.62 322.939 17.98C322.689 18.34 322.334 18.625 321.874 18.835C321.424 19.035 320.904 19.135 320.314 19.135ZM330.605 12.115C330.845 11.645 331.185 11.28 331.625 11.02C332.075 10.76 332.62 10.63 333.26 10.63V12.04H332.9C331.37 12.04 330.605 12.87 330.605 14.53V19H329.24V10.78H330.605V12.115ZM342.336 14.575C342.336 14.835 342.321 15.11 342.291 15.4H335.721C335.771 16.21 336.046 16.845 336.546 17.305C337.056 17.755 337.671 17.98 338.391 17.98C338.981 17.98 339.471 17.845 339.861 17.575C340.261 17.295 340.541 16.925 340.701 16.465H342.171C341.951 17.255 341.511 17.9 340.851 18.4C340.191 18.89 339.371 19.135 338.391 19.135C337.611 19.135 336.911 18.96 336.291 18.61C335.681 18.26 335.201 17.765 334.851 17.125C334.501 16.475 334.326 15.725 334.326 14.875C334.326 14.025 334.496 13.28 334.836 12.64C335.176 12 335.651 11.51 336.261 11.17C336.881 10.82 337.591 10.645 338.391 10.645C339.171 10.645 339.861 10.815 340.461 11.155C341.061 11.495 341.521 11.965 341.841 12.565C342.171 13.155 342.336 13.825 342.336 14.575ZM340.926 14.29C340.926 13.77 340.811 13.325 340.581 12.955C340.351 12.575 340.036 12.29 339.636 12.1C339.246 11.9 338.811 11.8 338.331 11.8C337.641 11.8 337.051 12.02 336.561 12.46C336.081 12.9 335.806 13.51 335.736 14.29H340.926ZM347.197 17.74L349.747 10.78H351.202L347.977 19H346.387L343.162 10.78H344.632L347.197 17.74ZM353.251 9.445C352.991 9.445 352.771 9.355 352.591 9.175C352.411 8.995 352.321 8.775 352.321 8.515C352.321 8.255 352.411 8.035 352.591 7.855C352.771 7.675 352.991 7.585 353.251 7.585C353.501 7.585 353.711 7.675 353.881 7.855C354.061 8.035 354.151 8.255 354.151 8.515C354.151 8.775 354.061 8.995 353.881 9.175C353.711 9.355 353.501 9.445 353.251 9.445ZM353.911 10.78V19H352.546V10.78H353.911ZM363.737 14.575C363.737 14.835 363.722 15.11 363.692 15.4H357.122C357.172 16.21 357.447 16.845 357.947 17.305C358.457 17.755 359.072 17.98 359.792 17.98C360.382 17.98 360.872 17.845 361.262 17.575C361.662 17.295 361.942 16.925 362.102 16.465H363.572C363.352 17.255 362.912 17.9 362.252 18.4C361.592 18.89 360.772 19.135 359.792 19.135C359.012 19.135 358.312 18.96 357.692 18.61C357.082 18.26 356.602 17.765 356.252 17.125C355.902 16.475 355.727 15.725 355.727 14.875C355.727 14.025 355.897 13.28 356.237 12.64C356.577 12 357.052 11.51 357.662 11.17C358.282 10.82 358.992 10.645 359.792 10.645C360.572 10.645 361.262 10.815 361.862 11.155C362.462 11.495 362.922 11.965 363.242 12.565C363.572 13.155 363.737 13.825 363.737 14.575ZM362.327 14.29C362.327 13.77 362.212 13.325 361.982 12.955C361.752 12.575 361.437 12.29 361.037 12.1C360.647 11.9 360.212 11.8 359.732 11.8C359.042 11.8 358.452 12.02 357.962 12.46C357.482 12.9 357.207 13.51 357.137 14.29H362.327ZM376.489 10.78L373.924 19H372.514L370.534 12.475L368.554 19H367.144L364.564 10.78H365.959L367.849 17.68L369.889 10.78H371.284L373.279 17.695L375.139 10.78H376.489ZM380.753 19.135C380.123 19.135 379.558 19.03 379.058 18.82C378.558 18.6 378.163 18.3 377.873 17.92C377.583 17.53 377.423 17.085 377.393 16.585H378.803C378.843 16.995 379.033 17.33 379.373 17.59C379.723 17.85 380.178 17.98 380.738 17.98C381.258 17.98 381.668 17.865 381.968 17.635C382.268 17.405 382.418 17.115 382.418 16.765C382.418 16.405 382.258 16.14 381.938 15.97C381.618 15.79 381.123 15.615 380.453 15.445C379.843 15.285 379.343 15.125 378.953 14.965C378.573 14.795 378.243 14.55 377.963 14.23C377.693 13.9 377.558 13.47 377.558 12.94C377.558 12.52 377.683 12.135 377.933 11.785C378.183 11.435 378.538 11.16 378.998 10.96C379.458 10.75 379.983 10.645 380.573 10.645C381.483 10.645 382.218 10.875 382.778 11.335C383.338 11.795 383.638 12.425 383.678 13.225H382.313C382.283 12.795 382.108 12.45 381.788 12.19C381.478 11.93 381.058 11.8 380.528 11.8C380.038 11.8 379.648 11.905 379.358 12.115C379.068 12.325 378.923 12.6 378.923 12.94C378.923 13.21 379.008 13.435 379.178 13.615C379.358 13.785 379.578 13.925 379.838 14.035C380.108 14.135 380.478 14.25 380.948 14.38C381.538 14.54 382.018 14.7 382.388 14.86C382.758 15.01 383.073 15.24 383.333 15.55C383.603 15.86 383.743 16.265 383.753 16.765C383.753 17.215 383.628 17.62 383.378 17.98C383.128 18.34 382.773 18.625 382.313 18.835C381.863 19.035 381.343 19.135 380.753 19.135ZM393.264 19.135C392.494 19.135 391.794 18.96 391.164 18.61C390.544 18.26 390.054 17.765 389.694 17.125C389.344 16.475 389.169 15.725 389.169 14.875C389.169 14.035 389.349 13.295 389.709 12.655C390.079 12.005 390.579 11.51 391.209 11.17C391.839 10.82 392.544 10.645 393.324 10.645C394.104 10.645 394.809 10.82 395.439 11.17C396.069 11.51 396.564 12 396.924 12.64C397.294 13.28 397.479 14.025 397.479 14.875C397.479 15.725 397.289 16.475 396.909 17.125C396.539 17.765 396.034 18.26 395.394 18.61C394.754 18.96 394.044 19.135 393.264 19.135ZM393.264 17.935C393.754 17.935 394.214 17.82 394.644 17.59C395.074 17.36 395.419 17.015 395.679 16.555C395.949 16.095 396.084 15.535 396.084 14.875C396.084 14.215 395.954 13.655 395.694 13.195C395.434 12.735 395.094 12.395 394.674 12.175C394.254 11.945 393.799 11.83 393.309 11.83C392.809 11.83 392.349 11.945 391.929 12.175C391.519 12.395 391.189 12.735 390.939 13.195C390.689 13.655 390.564 14.215 390.564 14.875C390.564 15.545 390.684 16.11 390.924 16.57C391.174 17.03 391.504 17.375 391.914 17.605C392.324 17.825 392.774 17.935 393.264 17.935ZM403.279 10.63C404.279 10.63 405.089 10.935 405.709 11.545C406.329 12.145 406.639 13.015 406.639 14.155V19H405.289V14.35C405.289 13.53 405.084 12.905 404.674 12.475C404.264 12.035 403.704 11.815 402.994 11.815C402.274 11.815 401.699 12.04 401.269 12.49C400.849 12.94 400.639 13.595 400.639 14.455V19H399.274V10.78H400.639V11.95C400.909 11.53 401.274 11.205 401.734 10.975C402.204 10.745 402.719 10.63 403.279 10.63Z" fill="#677487"/>
<g filter="url(#filter0_d_4_141)">
<path d="M23.6232 11.4651C23.5845 11.3496 23.4819 11.2653 23.3584 11.2478L17.4297 10.4089L14.7783 5.17806C14.7233 5.06893 14.6092 5 14.4847 5C14.3601 5 14.2458 5.06893 14.191 5.17806L11.5393 10.4092L5.61063 11.2481C5.48707 11.2657 5.38482 11.3496 5.34582 11.4654C5.30748 11.5806 5.33927 11.7076 5.42874 11.7922L9.7191 15.864L8.70607 21.6136C8.6851 21.7333 8.73557 21.8542 8.83618 21.9257C8.93745 21.9978 9.0715 22.0071 9.18129 21.95L14.4847 19.2357L19.7874 21.95C19.8352 21.9745 19.888 21.9867 19.9401 21.9867C20.008 21.9867 20.0755 21.9662 20.1328 21.9257C20.2338 21.8542 20.2842 21.7333 20.2629 21.6136L19.2502 15.8643L23.5406 11.7922C23.6297 11.707 23.6619 11.5803 23.6232 11.4651Z" fill="url(#paint0_linear_4_141)"/>
</g>
<g filter="url(#filter1_d_4_141)">
<path d="M46.0019 11.4651C45.9632 11.3496 45.8606 11.2653 45.737 11.2478L39.8083 10.4089L37.157 5.17806C37.1019 5.06893 36.9879 5 36.8633 5C36.7388 5 36.6244 5.06893 36.5697 5.17806L33.918 10.4092L27.9893 11.2481C27.8657 11.2657 27.7635 11.3496 27.7245 11.4654C27.6861 11.5806 27.7179 11.7076 27.8074 11.7922L32.0978 15.864L31.0847 21.6136C31.0638 21.7333 31.1142 21.8542 31.2148 21.9257C31.3161 21.9978 31.4502 22.0071 31.5599 21.95L36.8633 19.2357L42.1661 21.95C42.2139 21.9745 42.2667 21.9867 42.3188 21.9867C42.3866 21.9867 42.4541 21.9662 42.5115 21.9257C42.6124 21.8542 42.6629 21.7333 42.6416 21.6136L41.6289 15.8643L45.9193 11.7922C46.0084 11.707 46.0405 11.5803 46.0019 11.4651Z" fill="url(#paint1_linear_4_141)"/>
</g>
<g filter="url(#filter2_d_4_141)">
<path d="M68.38 11.4651C68.3414 11.3496 68.2388 11.2653 68.1152 11.2478L62.1865 10.4089L59.5352 5.17806C59.4801 5.06893 59.366 5 59.2415 5C59.117 5 59.0026 5.06893 58.9479 5.17806L56.2962 10.4092L50.3675 11.2481C50.2439 11.2657 50.1417 11.3496 50.1027 11.4654C50.0643 11.5806 50.0961 11.7076 50.1856 11.7922L54.4759 15.864L53.4629 21.6136C53.4419 21.7333 53.4924 21.8542 53.593 21.9257C53.6943 21.9978 53.8283 22.0071 53.9381 21.95L59.2415 19.2357L64.5442 21.95C64.5921 21.9745 64.6448 21.9867 64.697 21.9867C64.7648 21.9867 64.8323 21.9662 64.8897 21.9257C64.9906 21.8542 65.0411 21.7333 65.0198 21.6136L64.0071 15.8643L68.2974 11.7922C68.3866 11.707 68.4187 11.5803 68.38 11.4651Z" fill="url(#paint2_linear_4_141)"/>
</g>
<g filter="url(#filter3_d_4_141)">
<path d="M90.7584 11.4651C90.7198 11.3496 90.6172 11.2653 90.4936 11.2478L84.5649 10.4089L81.9136 5.17806C81.8585 5.06893 81.7445 5 81.6199 5C81.4954 5 81.381 5.06893 81.3263 5.17806L78.6746 10.4092L72.7459 11.2481C72.6223 11.2657 72.5201 11.3496 72.4811 11.4654C72.4427 11.5806 72.4745 11.7076 72.564 11.7922L76.8544 15.864L75.8413 21.6136C75.8204 21.7333 75.8708 21.8542 75.9714 21.9257C76.0727 21.9978 76.2067 22.0071 76.3165 21.95L81.6199 19.2357L86.9227 21.95C86.9705 21.9745 87.0233 21.9867 87.0754 21.9867C87.1432 21.9867 87.2107 21.9662 87.2681 21.9257C87.369 21.8542 87.4195 21.7333 87.3982 21.6136L86.3855 15.8643L90.6759 11.7922C90.765 11.707 90.7971 11.5803 90.7584 11.4651Z" fill="url(#paint3_linear_4_141)"/>
</g>
<g filter="url(#filter4_d_4_141)">
<path d="M113.136 11.4651C113.097 11.3496 112.995 11.2653 112.871 11.2478L106.942 10.4089L104.291 5.17806C104.236 5.06893 104.122 5 103.997 5C103.873 5 103.758 5.06893 103.704 5.17806L101.052 10.4092L95.1233 11.2481C94.9998 11.2657 94.8975 11.3496 94.8585 11.4654C94.8202 11.5806 94.852 11.7076 94.9414 11.7922L99.2318 15.864L98.2188 21.6136C98.1978 21.7333 98.2483 21.8542 98.3489 21.9257C98.4501 21.9978 98.5842 22.0071 98.694 21.95L103.997 19.2357L109.3 21.95C109.348 21.9745 109.401 21.9867 109.453 21.9867C109.521 21.9867 109.588 21.9662 109.646 21.9257C109.746 21.8542 109.797 21.7333 109.776 21.6136L108.763 15.8643L113.053 11.7922C113.142 11.707 113.175 11.5803 113.136 11.4651Z" fill="url(#paint4_linear_4_141)"/>
</g>
<defs>
<filter id="filter0_d_4_141" x="0.329834" y="0" width="28.3096" height="26.9871" filterUnits="userSpaceOnUse" color-interpolation-filters="sRGB">
<feFlood flood-opacity="0" result="BackgroundImageFix"/>
<feColorMatrix in="SourceAlpha" type="matrix" values="0 0 0 0 0 0 0 0 0 0 0 0 0 0 0 0 0 0 127 0" result="hardAlpha"/>
<feOffset/>
<feGaussianBlur stdDeviation="2.5"/>
<feComposite in2="hardAlpha" operator="out"/>
<feColorMatrix type="matrix" values="0 0 0 0 0.94902 0 0 0 0 0.815686 0 0 0 0 0.388235 0 0 0 0.36 0"/>
<feBlend mode="normal" in2="BackgroundImageFix" result="effect1_dropShadow_4_141"/>
<feBlend mode="normal" in="SourceGraphic" in2="effect1_dropShadow_4_141" result="shape"/>
</filter>
<filter id="filter1_d_4_141" x="22.7085" y="0" width="28.3096" height="26.9871" filterUnits="userSpaceOnUse" color-interpolation-filters="sRGB">
<feFlood flood-opacity="0" result="BackgroundImageFix"/>
<feColorMatrix in="SourceAlpha" type="matrix" values="0 0 0 0 0 0 0 0 0 0 0 0 0 0 0 0 0 0 127 0" result="hardAlpha"/>
<feOffset/>
<feGaussianBlur stdDeviation="2.5"/>
<feComposite in2="hardAlpha" operator="out"/>
<feColorMatrix type="matrix" values="0 0 0 0 0.94902 0 0 0 0 0.815686 0 0 0 0 0.388235 0 0 0 0.36 0"/>
<feBlend mode="normal" in2="BackgroundImageFix" result="effect1_dropShadow_4_141"/>
<feBlend mode="normal" in="SourceGraphic" in2="effect1_dropShadow_4_141" result="shape"/>
</filter>
<filter id="filter2_d_4_141" x="45.0867" y="0" width="28.3096" height="26.9871" filterUnits="userSpaceOnUse" color-interpolation-filters="sRGB">
<feFlood flood-opacity="0" result="BackgroundImageFix"/>
<feColorMatrix in="SourceAlpha" type="matrix" values="0 0 0 0 0 0 0 0 0 0 0 0 0 0 0 0 0 0 127 0" result="hardAlpha"/>
<feOffset/>
<feGaussianBlur stdDeviation="2.5"/>
<feComposite in2="hardAlpha" operator="out"/>
<feColorMatrix type="matrix" values="0 0 0 0 0.94902 0 0 0 0 0.815686 0 0 0 0 0.388235 0 0 0 0.36 0"/>
<feBlend mode="normal" in2="BackgroundImageFix" result="effect1_dropShadow_4_141"/>
<feBlend mode="normal" in="SourceGraphic" in2="effect1_dropShadow_4_141" result="shape"/>
</filter>
<filter id="filter3_d_4_141" x="67.4651" y="0" width="28.3096" height="26.9871" filterUnits="userSpaceOnUse" color-interpolation-filters="sRGB">
<feFlood flood-opacity="0" result="BackgroundImageFix"/>
<feColorMatrix in="SourceAlpha" type="matrix" values="0 0 0 0 0 0 0 0 0 0 0 0 0 0 0 0 0 0 127 0" result="hardAlpha"/>
<feOffset/>
<feGaussianBlur stdDeviation="2.5"/>
<feComposite in2="hardAlpha" operator="out"/>
<feColorMatrix type="matrix" values="0 0 0 0 0.94902 0 0 0 0 0.815686 0 0 0 0 0.388235 0 0 0 0.36 0"/>
<feBlend mode="normal" in2="BackgroundImageFix" result="effect1_dropShadow_4_141"/>
<feBlend mode="normal" in="SourceGraphic" in2="effect1_dropShadow_4_141" result="shape"/>
</filter>
<filter id="filter4_d_4_141" x="89.8425" y="0" width="28.3096" height="26.9871" filterUnits="userSpaceOnUse" color-interpolation-filters="sRGB">
<feFlood flood-opacity="0" result="BackgroundImageFix"/>
<feColorMatrix in="SourceAlpha" type="matrix" values="0 0 0 0 0 0 0 0 0 0 0 0 0 0 0 0 0 0 127 0" result="hardAlpha"/>
<feOffset/>
<feGaussianBlur stdDeviation="2.5"/>
<feComposite in2="hardAlpha" operator="out"/>
<feColorMatrix type="matrix" values="0 0 0 0 0.94902 0 0 0 0 0.815686 0 0 0 0 0.388235 0 0 0 0.36 0"/>
<feBlend mode="normal" in2="BackgroundImageFix" result="effect1_dropShadow_4_141"/>
<feBlend mode="normal" in="SourceGraphic" in2="effect1_dropShadow_4_141" result="shape"/>
</filter>
<linearGradient id="paint0_linear_4_141" x1="9.39848" y1="7.05555" x2="18.7123" y2="21.1523" gradientUnits="userSpaceOnUse">
<stop stop-color="#F2D063"/>
<stop offset="1" stop-color="#F8AE2E"/>
</linearGradient>
<linearGradient id="paint1_linear_4_141" x1="31.7771" y1="7.05555" x2="41.091" y2="21.1523" gradientUnits="userSpaceOnUse">
<stop stop-color="#F2D063"/>
<stop offset="1" stop-color="#F8AE2E"/>
</linearGradient>
<linearGradient id="paint2_linear_4_141" x1="54.1553" y1="7.05555" x2="63.4692" y2="21.1523" gradientUnits="userSpaceOnUse">
<stop stop-color="#F2D063"/>
<stop offset="1" stop-color="#F8AE2E"/>
</linearGradient>
<linearGradient id="paint3_linear_4_141" x1="76.5337" y1="7.05555" x2="85.8476" y2="21.1523" gradientUnits="userSpaceOnUse">
<stop stop-color="#F2D063"/>
<stop offset="1" stop-color="#F8AE2E"/>
</linearGradient>
<linearGradient id="paint4_linear_4_141" x1="98.9112" y1="7.05555" x2="108.225" y2="21.1523" gradientUnits="userSpaceOnUse">
<stop stop-color="#F2D063"/>
<stop offset="1" stop-color="#F8AE2E"/>
</linearGradient>
</defs>
</svg>
